<svg width="22" height="22" viewBox="0 0 22 22" fill="none" xmlns="http://www.w3.org/2000/svg">
<path d="M21.3125 7.5625C21.3117 6.8334 21.0217 6.13439 20.5062 5.61884C19.9906 5.10328 19.2916 4.8133 18.5625 4.8125H16.5V4.125C16.4994 3.57817 16.2819 3.05389 15.8953 2.66722C15.5086 2.28055 14.9843 2.06307 14.4375 2.0625H7.5625C7.01567 2.06307 6.49139 2.28055 6.10472 2.66722C5.71805 3.05389 5.50057 3.57817 5.5 4.125V4.8125H3.4375C2.7084 4.8133 2.00939 5.10328 1.49384 5.61884C0.978283 6.13439 0.688296 6.8334 0.6875 7.5625V9.625H21.3125V7.5625ZM15.125 4.8125H6.875V4.125C6.875 3.94266 6.94743 3.7678 7.07636 3.63886C7.2053 3.50993 7.38016 3.4375 7.5625 3.4375H14.4375C14.6198 3.4375 14.7947 3.50993 14.9236 3.63886C15.0526 3.7678 15.125 3.94266 15.125 4.125V4.8125ZM14.4375 11.3438C14.4375 11.6173 14.3288 11.8796 14.1355 12.073C13.9421 12.2663 13.6798 12.375 13.4062 12.375H8.59375C8.32025 12.375 8.05794 12.2663 7.86455 12.073C7.67115 11.8796 7.5625 11.6173 7.5625 11.3438V11.1719C7.5625 11.1263 7.54439 11.0826 7.51216 11.0503C7.47993 11.0181 7.43621 11 7.39062 11H0.6875V17.1875C0.6875 17.9168 0.977231 18.6163 1.49296 19.132C2.00868 19.6478 2.70815 19.9375 3.4375 19.9375H18.5625C19.2918 19.9375 19.9913 19.6478 20.507 19.132C21.0228 18.6163 21.3125 17.9168 21.3125 17.1875V11H14.6094C14.5638 11 14.5201 11.0181 14.4878 11.0503C14.4556 11.0826 14.4375 11.1263 14.4375 11.1719V11.3438Z" fill="#F4F1E9"/>
</svg>
